<svg width="50" height="50" viewBox="0 0 50 50" fill="none" xmlns="http://www.w3.org/2000/svg">
<rect width="50" height="50" rx="25" fill="#FFCB33"/>
<path fill-rule="evenodd" clip-rule="evenodd" d="M27.2 17.8286C27.8 17.0571 28.2286 16.0286 28.1 15C27.2 15.0429 26.1286 15.6 25.4857 16.3286C24.9286 16.9714 24.4143 18.0429 24.5429 19.0286C25.5714 19.1571 26.5571 18.6 27.2 17.8286ZM28.1 19.2857L27.8294 19.2807C27.047 19.2972 26.3352 19.5739 25.7504 19.8012C25.3339 19.9631 24.9817 20.1 24.7143 20.1C24.416 20.1 24.0448 19.9541 23.6253 19.7891C23.0803 19.5749 22.4538 19.3286 21.8 19.3286C20.3 19.3714 18.9286 20.1857 18.1571 21.5571C16.6143 24.2571 17.7286 28.2429 19.2714 30.4286L19.5073 30.7696C20.1923 31.7389 21.0218 32.6955 22.0571 32.6571C22.5768 32.6372 22.9474 32.4773 23.3296 32.3125C23.767 32.1238 24.2196 31.9286 24.9286 31.9286C25.5965 31.9286 26.0261 32.1127 26.4406 32.2904C26.8507 32.4661 27.2461 32.6356 27.8429 32.6143C28.9095 32.5762 29.6376 31.7593 30.2979 30.7956L30.6618 30.2514C31.3549 29.1918 31.6761 28.2026 31.7334 27.9856L31.7429 27.9429C31.7392 27.9392 31.7195 27.9299 31.6865 27.9141C31.3267 27.7429 29.3857 26.8191 29.3857 24.3857C29.3476 22.4048 30.7995 21.3381 31.1828 21.0954L31.2714 21.0429C30.3679 19.6286 28.9241 19.3667 28.2606 19.2998L28.1 19.2857Z" fill="white"/>
</svg>
