<svg width="50" height="50" viewBox="0 0 50 50" fill="none" xmlns="http://www.w3.org/2000/svg">
<rect width="50" height="50" rx="25" fill="#EDEFF2"/>
<path d="M36.9938 25.5495C36.9938 24.7143 36.9255 23.8822 36.7827 23.0594H25.2391V27.7725H31.8492C31.5759 29.2939 30.6942 30.6382 29.4057 31.492V34.5534H33.3519C35.6618 32.4266 36.9938 29.2752 36.9938 25.5495Z" fill="#3361FF"/>
<path d="M25.2391 37.5123C28.5426 37.5123 31.3245 36.4287 33.3519 34.5565L29.4057 31.4952C28.3066 32.2403 26.8939 32.6657 25.2391 32.6657C22.0474 32.6657 19.3369 30.5141 18.3682 27.6142H14.304V30.7687C16.3811 34.9042 20.6129 37.5123 25.2391 37.5123Z" fill="#29CC39"/>
<path d="M18.3682 27.6142C17.8559 26.0959 17.8559 24.4473 18.3682 22.9291V19.7746H14.304C12.5653 23.2333 12.5653 27.3099 14.304 30.7686L18.3682 27.6142Z" fill="#FFCB33"/>
<path d="M25.2391 17.8776C26.984 17.8496 28.6699 18.5079 29.9335 19.7125L33.4295 16.2196C31.2127 14.1394 28.2787 12.9969 25.2391 13.031C20.6129 13.031 16.3811 15.6421 14.304 19.7746L18.3682 22.9291C19.3369 20.0292 22.0474 17.8776 25.2391 17.8776Z" fill="#E62E2E"/>
</svg>
