<svg width="50" height="50" viewBox="0 0 50 50" fill="none" xmlns="http://www.w3.org/2000/svg">
<rect width="50" height="50" rx="25" fill="#106E33"/>
<path d="M39.25 25.0254C39.25 32.9094 32.87 39.3008 25 39.3008C17.1299 39.3008 10.75 32.9094 10.75 25.0254C10.75 17.1414 17.13 10.75 25 10.75C32.87 10.75 39.25 17.1414 39.25 25.0254Z" fill="white"/>
<path d="M24.8983 15.3151C25.4236 15.6169 25.981 16.0053 26.4051 16.417L26.2385 16.5838C25.4013 16.4951 24.5197 16.6059 23.7261 16.6181C23.6377 16.5291 23.4594 16.3953 23.6253 16.2835L24.8983 15.3151Z" fill="#106E33"/>
<path d="M39.6998 25.6789C39.7109 26.0554 39.7464 26.3788 39.5991 26.7643C38.0698 27.1979 37.0652 25.5841 35.5814 25.8274L35.7491 26.6639C37.1219 26.7089 37.9795 28.021 39.3976 27.9646C39.1961 28.3656 39.4875 29.4224 38.5949 29C37.6682 28.778 36.9982 27.9646 35.9829 27.9646C35.8604 28.1887 35.9381 28.4991 35.9165 28.7644C36.9877 28.9318 37.7581 29.8342 38.8289 30.0008C38.7282 30.3676 38.6284 30.7783 38.3266 31.0019C37.4555 30.7906 36.7749 30.0108 35.8475 30.0331L35.6824 30.8012C36.5636 30.8238 37.1333 31.601 37.9254 31.8344C37.9471 32.1583 37.6567 32.4479 37.4891 32.737C36.786 32.5266 36.2498 31.9244 35.4462 31.9689C35.4351 31.6671 35.6148 31.3246 35.5469 31.0019C34.6445 31.2695 34.0394 30.4338 33.3706 29.9324C33.3514 28.292 31.6187 27.2157 31.5272 25.679C31.5095 25.3725 31.5563 25.0455 31.6965 24.6939C32.266 23.3816 32.0871 21.6777 31.4627 20.4541C31.2728 20.132 30.9368 19.8779 30.6234 19.6885C31.0818 20.6569 31.6405 21.801 31.3616 22.9912C31.3293 23.9102 30.7851 24.793 30.779 25.679C30.7768 25.9949 30.8446 26.3108 31.0269 26.6298C31.7527 27.9329 33.0589 29.1666 32.5677 30.801C32.4327 31.303 32.0307 31.6911 31.9302 32.202C32.7795 32.9031 33.5826 33.6932 34.7096 33.7376C35.1111 33.482 34.8881 32.3485 35.7141 32.8714L36.9202 33.4727C36.8324 33.7944 36.562 34.0828 36.3172 34.3044C35.8596 34.0825 35.4132 33.8163 34.8426 33.838C34.6744 34.016 34.5297 34.2157 34.5424 34.471C34.9439 34.5369 35.3124 34.7057 35.6477 34.9398C35.4919 35.2741 35.1884 35.4835 34.9093 35.7396L33.9738 35.4062C33.8176 35.629 33.4931 35.863 33.607 36.1076C33.8182 36.1976 34.0523 36.3194 34.2076 36.4755C33.7947 36.9204 33.2713 37.2067 32.7676 37.5086C32.3337 36.0953 30.9042 35.1045 31.027 33.4701L30.9606 33.4039C30.6246 33.7805 30.7368 34.3825 30.7585 34.8712C31.1606 35.8948 32.1198 36.6855 32.2653 37.8081C32.0974 38.0971 31.7188 38.1547 31.4281 38.2769C31.462 36.253 28.3815 34.7179 30.3569 32.6706C31.0157 31.6681 32.1196 30.7114 31.7285 29.3312C31.327 27.9985 29.9066 27.1728 29.9192 25.679L29.9215 25.5624C30.2449 24.0046 31.2277 22.3469 30.4238 20.6896C30.1996 20.023 29.6991 19.2655 29.0183 18.9869C30.0334 20.1448 30.4357 22.0342 29.8551 23.5924C29.5623 24.2123 29.1594 24.9506 29.119 25.6792H29.1165C29.0949 26.0597 29.1728 26.4382 29.4193 26.7969C30.1899 28.0434 31.5287 29.4124 30.7586 31.0367C29.8881 32.3377 28.3701 33.6611 29.218 35.3748C29.8317 36.3981 30.7814 37.4193 30.525 38.6774L29.5207 39.0109C30.1903 36.6643 26.9083 35.2855 28.2823 32.938C29.1305 31.6811 30.6476 30.5016 29.7888 28.8333C29.2753 27.7996 28.2146 27.1878 28.2479 25.8961L28.2845 25.6791C28.6302 23.8471 30.0277 22.1128 29.0504 20.1551C28.7936 19.5769 28.2806 18.9876 27.7111 18.6536L27.6768 18.6878C28.8158 19.7891 29.1623 21.6012 28.5481 23.0578C28.2617 23.9124 27.6328 24.7637 27.505 25.6794C27.4441 26.1113 27.4954 26.5588 27.7456 27.0302C28.4711 28.1751 29.7433 29.3896 28.9495 30.8698C28.1135 32.0923 26.7178 33.282 27.2753 34.8719C27.8894 36.2629 29.1714 37.5881 28.4793 39.3128L27.4426 39.5461C28.2683 37.8653 27.0304 36.1973 26.305 34.7396C25.4228 32.648 28.2005 31.6465 28.2451 29.7344C28.2346 28.5001 26.918 27.7993 26.64 26.6648C26.0701 26.1856 25.4795 26.8552 24.7983 26.7309C24.2955 26.8316 23.5232 26.041 23.223 26.8981C22.8656 28.1545 21.2368 29.0781 21.9525 30.5684C22.6337 31.8927 24.2728 32.861 23.7252 34.5749C23.235 36.1756 21.6155 37.6998 22.62 39.5461C22.2073 39.4129 21.4369 39.668 21.4481 39.011C20.8121 36.7752 23.524 35.4725 22.6864 33.2378C22.2966 31.869 20.5206 31.1129 20.9116 29.4665C21.2006 28.1113 22.7264 27.1639 22.5124 25.6794C22.4934 25.5489 22.4626 25.4204 22.4205 25.2954C21.851 23.6935 20.6891 22.0911 21.3816 20.2215C21.5718 19.6876 21.9515 19.2316 22.2852 18.7543C21.1802 19.3436 20.6227 20.5899 20.6456 21.8578C20.5974 23.2366 21.6193 24.4177 21.7647 25.6794C21.8219 26.1886 21.7382 26.7101 21.3816 27.2632C20.6567 28.2435 19.7087 29.2772 20.1433 30.5681C20.5566 31.8702 22.186 32.6591 22.0857 34.1725C22.0745 35.9629 19.9873 37.0775 20.5789 39.0798L19.54 38.7439C19.1275 36.9646 21.0246 36.0544 21.0464 34.4081C21.3149 32.5151 18.8923 31.8127 19.0377 29.9672C19.0273 28.5651 20.2656 27.6771 20.8125 26.4977C20.9062 26.2107 20.9376 25.9396 20.925 25.6795C20.858 24.3755 19.6791 23.3561 19.8747 21.8899C19.9405 20.8109 20.3089 19.865 21.0123 19.0536C20.0418 19.4421 19.6408 20.5556 19.3727 21.4902C18.9075 22.9889 20.0181 24.3369 20.1294 25.6795C20.1787 26.2725 20.0334 26.862 19.4737 27.4647C18.6696 28.409 17.8542 29.6007 18.4347 30.87C19.0495 32.2705 20.9808 33.3606 20.1431 35.1073C19.6861 36.2089 18.5917 37.0426 18.6367 38.3438C18.3467 38.2214 18.0459 38.0994 17.7995 37.8774C17.7995 36.2203 20.1648 35.1852 19.0378 33.4387C18.938 33.7832 18.9165 34.2516 18.8384 34.6409C18.4473 35.6537 17.6105 36.4643 17.2973 37.5114C16.7737 37.31 16.2261 36.8868 15.7906 36.4418L16.3939 36.0739C16.3269 35.8509 16.1486 35.662 15.9926 35.4729C15.6009 35.4181 15.3436 35.6743 15.0205 35.7747C14.7415 35.5294 14.4722 35.3069 14.2498 35.0065C14.45 34.4381 16.0148 34.9081 15.2221 33.9734C14.6869 33.64 14.1497 34.1164 13.6811 34.3388L13.0457 33.539C13.5927 33.2056 14.1382 32.7372 14.8185 32.8716C14.9861 33.1725 14.9978 33.6149 15.3207 33.772C16.4706 33.7498 17.2853 32.8829 18.1667 32.2041C17.5524 31.2931 17.0523 30.0353 17.598 28.9334C18.0352 27.8294 19.1746 26.8994 19.2261 25.6788C19.2379 25.4011 19.1944 25.1088 19.0725 24.7942C18.4701 23.2477 18.2575 21.1575 19.4074 19.7887C18.7822 19.9561 18.4135 20.7328 18.2011 21.3224C17.5099 22.8325 18.3841 24.2316 18.4143 25.6787C18.4185 25.9391 18.3973 26.1999 18.334 26.4627C17.7422 27.6529 16.7834 28.6972 16.6277 30.0668C15.9466 30.4998 15.3875 31.257 14.417 31.0015C14.3829 31.2571 14.4611 31.6467 14.5501 31.9363C13.7805 31.904 13.2557 32.4694 12.6079 32.7363C12.2626 32.6259 12.1728 32.1812 12.0392 31.8701C12.7976 31.6148 13.3447 30.857 14.2155 30.8689C14.3165 30.5894 14.159 30.3333 14.1145 30.0666C13.0313 29.5875 11.3143 32.4354 11.1699 29.9662C12.2523 29.8995 12.9439 28.898 14.016 28.7982L14.048 27.9984C12.8314 27.876 12.0488 29.1224 10.8328 28.9996L10.5646 27.9322C11.9713 28.0198 12.8094 26.7634 14.149 26.6958C14.327 26.4625 14.3485 26.1177 14.3828 25.7954C12.9205 25.6054 11.9172 27.2206 10.3651 26.7301C10.3651 26.7301 10.3116 26.0579 10.2826 25.6788H10.2847C10.2789 25.5949 10.272 25.5111 10.2642 25.4274C11.6481 25.9625 12.864 24.9718 14.048 24.4605C14.3491 24.3707 14.8187 24.5264 14.9536 24.1929C14.9421 23.937 15.4102 23.6378 15.0204 23.4593C13.2896 23.2251 12.1397 25.3059 10.3649 24.3598L10.2318 24.0922C10.6007 19.0645 13.4456 14.2039 18.1665 11.812C20.0784 10.723 22.4537 10.168 24.8492 10.1482C27.74 10.1242 30.6614 10.8801 32.8344 12.4132C34.9445 13.7032 36.963 15.8293 38.0584 17.9876C39.1062 19.8787 39.5883 22.0006 39.7324 24.2595C37.9015 25.6383 36.6732 22.9606 34.8088 23.5599C34.9091 23.8496 34.9648 24.1495 35.178 24.3942C36.8304 24.3825 37.9682 26.107 39.698 25.4273L39.6998 25.6789V25.6789Z" fill="#106E33"/>
<path d="M18.6685 19.487C17.5074 18.7304 16.0355 19.4429 14.9535 19.855C14.8531 18.8422 14.4404 17.9195 13.5799 17.2521C13.4965 17.2106 13.3811 17.1236 13.2771 17.1171C13.2149 17.1132 13.1557 17.1383 13.1098 17.2175C13.4998 19.6089 11.9401 21.2775 10.8348 23.0915C11.2028 23.3912 11.7941 23.3465 12.2405 23.2583C13.4122 22.7914 14.5283 21.9785 15.9234 22.2571C16.3361 21.5563 17.0292 20.8775 17.5976 20.3214C17.945 20.0218 18.422 19.8317 18.6685 19.487V19.487Z" fill="white"/>
<path d="M22.2184 20.9888C22.196 21.1328 22.2296 21.3896 22.4523 21.2903C22.7989 20.812 23.4124 21.1905 23.7917 21.2241V21.0895C23.5836 20.7638 23.1555 20.6003 22.7207 20.6165C22.6204 20.6201 22.5184 20.6346 22.4203 20.6574C22.2749 20.6896 22.1736 20.8222 22.2184 20.9888V20.9888Z" fill="white"/>
<path d="M27.6763 19.5558C27.3646 18.8659 26.6502 18.5867 26.0021 18.4198C25.6843 18.3808 25.3545 18.3545 25.0274 18.3513C24.9661 18.3507 24.9049 18.3499 24.8438 18.3513C23.9289 18.3697 23.0547 18.6038 22.5206 19.3544C22.444 19.5663 22.1069 19.8639 22.4199 20.0538C23.1231 20.0091 23.9256 19.9212 24.3944 20.5226C24.3944 21.0572 24.7407 21.7682 24.1605 22.0241C23.6798 21.5805 23.1105 22.213 22.5874 21.857C22.3415 21.7121 22.1859 21.8811 22.0852 22.0925C21.9398 23.4715 22.6644 24.9936 23.9588 25.7609C24.4835 25.9495 25.1887 26.1288 25.7362 25.8613C27.0531 25.2501 27.5987 23.8493 27.8441 22.5587C27.8112 22.3131 27.8227 21.8345 27.477 21.8228C27.0866 22.069 26.5172 21.9235 26.1036 21.8228C25.8589 21.9015 25.8476 22.2583 25.5692 22.3259L25.3995 22.191C25.2541 21.58 25.1645 20.7121 25.7344 20.2893C26.3712 20.0334 27.119 19.9217 27.7773 20.1225C27.9003 19.9111 27.7106 19.7448 27.6763 19.5558V19.5558Z" fill="white"/>
<path d="M27.0044 20.6526C26.9601 20.6538 26.9172 20.656 26.8734 20.6574C26.6397 20.8129 25.9581 20.7011 26.2042 21.2241C26.6285 20.8896 27.2201 21.124 27.6442 21.2903C27.8009 21.2128 27.7671 21.057 27.7773 20.9226C27.641 20.6701 27.3157 20.6465 27.0044 20.6526Z" fill="white"/>
<path d="M31.8639 15.9491C31.0377 15.9054 30.3459 16.3729 29.5868 16.5843C29.5208 15.9405 30.0114 15.2606 30.1234 14.6143C28.8961 14.693 27.9238 15.4294 26.9084 16.0176C26.6727 15.4504 26.438 14.8828 26.2044 14.3148L27.5439 13.0464L27.5782 12.8792L25.7689 12.7788C25.4573 12.2346 25.3344 11.5791 24.9662 11.0785C24.6648 11.6459 24.4623 12.2463 24.1612 12.813L22.3542 12.9137V13.0464L23.7256 14.2806C23.558 14.915 23.4022 15.6043 22.9895 16.0837C22.186 15.604 21.3938 15.082 20.5128 14.7488C20.3008 14.6807 19.9986 14.5698 19.8089 14.7146C20.0875 15.3267 20.4777 15.985 20.4121 16.653C20.0435 16.5854 19.7538 16.3499 19.4076 16.2509C18.9935 16.1382 18.5022 15.9183 18.1005 16.0521C18.7703 16.9859 19.317 17.9634 19.5062 19.0873C21.7283 18.0183 24.3197 17.4304 27.0097 17.8873C28.2707 18.0872 29.4301 18.5992 30.5576 19.0208C30.6017 17.8424 31.3493 16.8955 31.8639 15.9491V15.9491Z" fill="white"/>
<path d="M35.6799 22.3576C36.8175 22.6576 37.9586 23.893 39.1632 23.0915C38.114 21.3564 36.5525 19.754 36.9869 17.4851C37.0323 17.3302 36.9318 17.1734 36.7874 17.1514C36.1068 17.4286 35.5797 18.0969 35.3104 18.7537C35.1996 19.1423 35.1342 19.5552 34.9782 19.9215C34.1627 19.4985 33.2928 19.0889 32.2995 19.1878C31.9411 19.2323 31.4278 19.2557 31.3616 19.6223C32.4888 20.2227 33.4157 21.2246 34.1067 22.2917C34.5879 22.2136 35.1777 22.2803 35.6799 22.3576V22.3576Z" fill="white"/>
<path d="M23.7596 23.9258L23.7917 24.1269C24.2278 24.4164 24.362 24.9072 24.9659 24.8627C25.5013 24.8943 25.903 24.3943 26.1697 23.9941C25.4453 23.8943 24.5633 24.0486 23.7596 23.9258L23.7596 23.9258Z" fill="#106E33"/>
<path d="M24.3625 23.0253C24.3842 23.1143 24.3072 23.2478 24.4289 23.2929C24.7862 23.2156 25.4332 23.4823 25.6327 23.0595C25.4933 22.904 25.2661 22.8334 25.0274 22.8334C24.7889 22.8334 24.5415 22.9026 24.3625 23.0253V23.0253Z" fill="#106E33"/>
<path opacity="0.99" d="M23.7604 22.6392H26.2078V23.6413H23.7604V22.6392Z" fill="white"/>
<path d="M24.2124 23.1751C24.5286 23.2497 24.6069 23.3614 24.8567 23.3927C25.1226 23.388 25.0843 23.3342 25.5475 23.1748C25.5781 23.1641 25.6199 23.0971 25.5681 23.0458C25.2802 22.7612 25.0813 22.9646 24.9011 22.97C24.6616 22.9725 24.4372 22.7658 24.2034 23.0346C24.1636 23.0891 24.1428 23.1428 24.2124 23.1751Z" fill="#106E33"/>
</svg>
