<svg width="70" height="70" viewBox="0 0 70 70" fill="none" xmlns="http://www.w3.org/2000/svg">
<ellipse cx="34.9469" cy="36.2837" rx="34.9469" ry="30.4769" fill="#8833FF"/>
<path fill-rule="evenodd" clip-rule="evenodd" d="M65.5204 64.3118C66.6552 62.3408 68.2081 58.6377 68.6262 56.3681C69.0443 54.0985 68.9249 53.2026 67.8498 52.5456C66.7747 51.8886 63.1911 49.1411 62.1757 48.3647C61.1604 47.5882 59.0102 45.4381 57.9948 43.3476C56.9795 41.2572 55.8447 38.5097 55.2474 36.3596C54.6501 34.2094 53.575 31.6411 52.918 29.9688C52.261 28.2964 51.2457 25.9073 50.1109 24.3544C48.9761 22.8015 47.6621 21.0097 46.6467 20.4125C45.6313 19.8152 44.9146 19.5763 44.0784 18.9193C43.2423 18.2623 42.645 17.4858 41.9283 16.4108C41.2115 15.3357 40.5546 15.0968 39.8378 15.2162C39.1211 15.3357 38.1655 16.7094 37.9266 17.9637C37.6877 19.2179 14.3941 14.3203 14.3941 14.3203C14.3941 14.3203 12.244 14.7981 11.3481 15.3357C10.4522 15.8732 9.55626 16.2316 9.97435 17.4858C10.3924 18.7401 11.6467 19.2179 12.8412 19.2777C14.0358 19.3374 14.3941 19.4568 14.3941 19.4568L14.9317 23.2196C14.9317 23.2196 13.4385 23.6974 12.3037 24.7128C11.1689 25.7282 9.97435 26.863 9.55626 28.2964C9.13817 29.7299 9.91462 30.7452 10.9897 30.8647C12.0648 30.9841 13.6177 30.5063 14.3941 29.9688C15.1706 29.4312 15.947 29.0131 15.947 29.0131L16.604 32.5968C16.604 32.5968 15.4095 33.4329 14.6928 34.1497C13.9761 34.8664 13.558 36.0012 13.3788 36.5985C13.1996 37.1957 12.901 38.0916 12.6621 39.3459C12.4232 40.6002 12.6023 42.0336 13.0204 42.5712C13.4385 43.1087 14.872 43.4073 15.7081 42.2128C16.5443 41.0183 17.2013 40.0626 17.6194 39.5251C18.0375 38.9875 18.3361 38.7486 18.3361 38.7486L18.7542 41.1974C18.7542 41.1974 21.5017 45.4381 20.6057 44.7811C19.7098 44.1241 30.7593 50.3954 30.7593 50.3954C30.7593 50.3954 31.1177 50.8732 31.715 51.5899C32.3122 52.3067 33.686 53.9193 34.2235 54.5763C34.761 55.2333 36.6723 57.4432 37.4487 58.2196C38.2252 58.9961 39.8378 60.4295 41.4505 61.0268C43.0631 61.6241 44.9146 62.1019 46.6467 62.6992C48.3788 63.2964 51.6638 64.4312 53.0375 65.3869C54.4112 66.3425 58.6518 69.2094 59.1296 69.5678C59.6075 69.9261 60.7423 70.3442 61.8771 69.0899C63.0119 67.8357 64.3856 66.2828 65.5204 64.3118Z" fill="#FBD300"/>
<path fill-rule="evenodd" clip-rule="evenodd" d="M43.0631 46.3339C43.0631 46.3937 43.8396 47.3493 44.3771 48.0063C44.9146 48.6633 45.1536 48.723 45.6911 49.0217C46.2286 49.3203 46.6467 49.5592 46.7065 49.2008C46.7662 48.8425 46.4078 48.723 45.8106 48.3049C45.2133 47.8868 44.7952 47.6479 44.2576 47.0507C43.7201 46.4534 43.1826 45.5575 43.1826 45.5575C43.1826 45.5575 43.0631 46.2742 43.0631 46.3339Z" fill="#CBAC04"/>
<path fill-rule="evenodd" clip-rule="evenodd" d="M42.227 39.5931C42.227 39.5931 42.0478 37.7416 42.8242 36.786C43.6007 35.8303 43.6604 35.4122 44.0785 35.1136C44.4966 34.815 45.3925 34.0982 44.7952 33.9788C44.198 33.8593 43.2423 35.0539 42.8242 35.7109C42.4061 36.3679 41.7491 37.2638 41.7491 38.1597C41.7491 39.0556 41.9881 39.832 41.9881 39.832L42.227 39.5931Z" fill="#CBAC04"/>
<path fill-rule="evenodd" clip-rule="evenodd" d="M20.9642 50.3356C20.9642 50.3356 22.099 51.8885 23.7116 51.8885C25.3243 51.8885 29.2663 51.1718 30.5802 50.8732C31.8942 50.5746 39.4796 49.0217 40.6741 48.7827C41.8686 48.5438 43.1229 47.7674 43.3618 46.752C43.6007 45.7367 42.9437 42.5711 42.7048 41.2571C42.4659 39.9432 41.0325 33.1343 40.913 32.2384C40.7936 31.3425 38.5239 20.4722 38.5239 20.4722L36.6127 11.8118C36.6127 11.8118 35.1195 5.00288 34.8209 3.98752C34.5222 2.97216 33.6263 0.463631 31.7151 0.10527C29.8038 -0.253092 26.7577 0.403904 25.9215 0.583085C25.0854 0.762266 18.0376 2.31517 17.082 2.49435C16.1263 2.67353 13.4386 3.33053 12.483 3.86807C11.5273 4.40561 10.6314 5.00288 10.8106 7.15305C10.9898 9.30322 12.7219 16.1718 12.7219 16.1718L14.2748 22.921L15.4693 28.2964L16.7833 34.0302L17.8584 38.6889L19.0529 43.9449L20.7253 49.6189L20.9642 50.3356Z" fill="black"/>
<path fill-rule="evenodd" clip-rule="evenodd" d="M26.9966 45.7366C26.9966 45.7366 30.9386 45.1394 33.8055 44.5421C36.6724 43.9448 39.8976 43.7657 40.3754 42.3919C40.8532 41.0182 39.8379 37.4943 39.3601 35.4039C38.8823 33.3134 37.0904 25.0114 36.7321 22.9807C36.3737 20.95 35.1792 15.4551 34.8208 13.3646C34.4625 11.2742 32.9096 5.48067 32.6706 4.58477C32.4317 3.68887 31.6553 2.37487 29.744 2.19569C27.8328 2.01651 22.756 3.39023 21.5614 3.62914C20.3669 3.86805 16.3652 4.46532 15.2901 4.8834C14.215 5.30149 13.0802 6.13767 13.2594 7.92948C13.4386 9.72129 13.7372 12.8271 14.2747 15.037C14.8123 17.2469 16.186 22.3237 16.5444 24.2349C16.9027 26.1462 18.0973 29.4312 18.0973 31.3424C18.0973 33.2537 19.0529 36.1803 19.1724 37.1957C19.2918 38.211 20.2474 42.3919 20.5461 42.9892C20.8447 43.5865 21.5614 45.8561 23.3532 46.095C25.1451 46.3339 26.9966 45.7366 26.9966 45.7366Z" fill="#FF4A04"/>
<path fill-rule="evenodd" clip-rule="evenodd" d="M39.0017 23.1002C39.0017 23.1002 40.0768 24.7128 40.7338 25.1906C41.3908 25.6684 42.3464 26.3851 42.5853 27.1616C42.8242 27.9381 43.5409 30.1479 43.7201 30.6258C43.8993 31.1036 44.0785 31.4619 44.4368 31.2828C44.7952 31.1036 44.6757 30.9244 44.1979 29.909C43.7201 28.8937 43.4812 27.6394 43.1228 26.9824C42.7645 26.3254 42.5256 25.7879 41.8088 25.1906C41.0921 24.5933 40.4351 23.8766 39.9573 23.3391C39.4795 22.8015 38.6433 21.1889 38.6433 21.1889L39.0017 22.9807V23.1002Z" fill="#CBAC04"/>
<path fill-rule="evenodd" clip-rule="evenodd" d="M16.2458 47.4687C16.2458 47.4687 16.7833 49.9176 17.4403 50.6343C18.0973 51.351 19.5905 51.7094 20.1877 51.1121C20.785 50.5148 21.7406 49.38 21.5615 47.7077C21.3823 46.0353 21.2031 45.0199 20.4266 44.5421C19.6502 44.0643 19.1724 43.8254 18.9932 43.2879C18.814 42.7503 18.3959 41.2571 18.3959 41.2571C18.3959 41.2571 16.7833 43.467 16.4249 44.9005C16.0666 46.3339 16.2458 47.4687 16.2458 47.4687Z" fill="#FBD300"/>
<path fill-rule="evenodd" clip-rule="evenodd" d="M55.4436 56.7285C56.3395 55.4742 56.6978 54.9366 56.9965 54.2796C57.2951 53.6226 57.4743 52.5476 57.2354 52.4878C56.9965 52.4281 56.7576 52.8462 56.5784 53.5032C56.3992 54.1602 56.0408 54.8769 55.6228 55.3547C55.2047 55.8325 54.6671 56.3701 54.7866 56.609C54.906 56.8479 54.5477 57.9827 55.4436 56.7285Z" fill="#CBAC04"/>
<path fill-rule="evenodd" clip-rule="evenodd" d="M57.7728 50.039C57.7728 50.039 57.8326 49.3223 57.8326 48.9042C57.8326 48.4861 57.7131 48.4264 57.5339 48.4264C57.3548 48.4264 57.2353 48.3666 57.1756 48.9042C57.1158 49.4417 57.1158 49.9793 57.1158 50.2779C57.1158 50.5765 57.1756 50.7557 57.3548 50.8154C57.5339 50.8752 57.6534 50.5765 57.7131 50.3973C57.7728 50.2182 57.7728 50.039 57.7728 50.039Z" fill="#CBAC04"/>
<path fill-rule="evenodd" clip-rule="evenodd" d="M29.5798 19.7697C29.1617 18.1571 28.6241 14.8721 28.1463 13.5581C27.6685 12.2441 26.9518 11.0496 26.2948 10.3328C25.6378 9.61612 24.8613 9.49666 24.2043 9.67584C23.5473 9.85502 22.9501 9.97448 22.7112 10.8107C22.4723 11.6468 22.3528 12.6622 22.2334 13.3192C22.1139 13.9762 22.1736 16.0666 22.1736 16.7834C22.1736 17.5001 22.7709 20.2475 22.8903 21.0837C23.0098 21.9199 23.9654 24.0103 24.2043 24.9659C24.4432 25.9216 24.9211 26.9369 25.16 27.7731C25.3989 28.6093 26.5934 30.2816 27.3699 30.3414C28.1463 30.4011 28.6241 30.4011 29.2214 29.6246C29.8187 28.8482 29.9979 21.3823 29.5798 19.7697Z" fill="white"/>
<path fill-rule="evenodd" clip-rule="evenodd" d="M26.7727 35.8362C26.7727 34.5222 26.7129 34.3431 27.1907 33.925C27.6686 33.5069 27.9672 33.5666 28.3853 33.268C28.8034 32.9693 29.4006 32.7902 30.3563 33.268C31.3119 33.7458 32.1481 34.7611 32.3273 35.4779C32.5064 36.1946 32.4467 37.0308 31.7897 37.628C31.1327 38.2253 31.073 38.5837 30.1771 38.5837C29.2812 38.5837 28.8631 38.7629 28.1464 38.2253C27.4296 37.6878 27.1907 37.8669 27.0116 37.0308C26.8324 36.1946 26.7727 37.1502 26.7727 35.8362Z" fill="white"/>
</svg>
