<svg width="50" height="50" viewBox="0 0 50 50" fill="none" xmlns="http://www.w3.org/2000/svg">
<rect width="50" height="50" rx="25" fill="#E1E5ED"/>
<path d="M26.8809 13.0737L26.871 18.5742L26.8612 24.0747L26.4094 22.7978V22.7945L25.8233 35.0397C26.3996 36.6636 26.7073 37.5312 26.7106 37.5345C26.7139 37.5378 27.0413 37.5574 27.4375 37.5771C28.6358 37.636 30.1222 37.7637 31.2518 37.9045C31.5137 37.9372 31.7364 37.9536 31.7527 37.9405C31.7691 37.9274 31.7724 32.3287 31.7691 25.4957L31.7593 13.0737L26.8809 13.0737Z" fill="#CE2A1D"/>
<path d="M18.0572 13.0574V25.4924C18.0572 32.332 18.0637 37.934 18.0735 37.9438C18.0834 37.9536 18.5057 37.911 19.0165 37.8554C19.5272 37.7997 20.2312 37.7277 20.5815 37.6982C21.1185 37.6524 22.7293 37.5509 22.9127 37.5476C22.9683 37.5476 22.9716 37.2693 22.9781 32.2796L22.988 27.0116L23.3776 28.1117C23.4365 28.2819 23.4562 28.3343 23.5151 28.5013L24.1012 16.2594C23.9767 15.9091 24.0422 16.0924 23.9014 15.693C23.4234 14.3408 23.0174 13.1981 23.0011 13.1458L22.9683 13.0541H18.0572V13.0574Z" fill="#CE2A1D"/>
<path d="M26.8809 13.0737L26.871 18.5742L26.8612 24.0747L26.4094 22.7978V22.7945L25.8233 35.0397C26.3996 36.6636 26.7073 37.5312 26.7106 37.5345C26.7139 37.5378 27.0413 37.5574 27.4375 37.5771C28.6358 37.636 30.1222 37.7637 31.2518 37.9045C31.5137 37.9372 31.7364 37.9536 31.7527 37.9405C31.7691 37.9274 31.7724 32.3287 31.7691 25.4957L31.7593 13.0737L26.8809 13.0737Z" fill="#CE2A1D"/>
<path d="M18.0572 13.0574V25.4924C18.0572 32.332 18.0637 37.934 18.0735 37.9438C18.0834 37.9536 18.5057 37.911 19.0165 37.8554C19.5272 37.7997 20.2312 37.7277 20.5815 37.6982C21.1185 37.6524 22.7293 37.5509 22.9127 37.5476C22.9683 37.5476 22.9716 37.2693 22.9781 32.2796L22.988 27.0116L23.3776 28.1117C23.4365 28.2819 23.4562 28.3343 23.5151 28.5013L24.1012 16.2594C23.9767 15.9091 24.0422 16.0924 23.9014 15.693C23.4234 14.3408 23.0174 13.1981 23.0011 13.1458L22.9683 13.0541H18.0572V13.0574Z" fill="#CE2A1D"/>
<path d="M18.0572 13.0574L22.9847 27.0214V27.0148L23.3743 28.1149C25.5385 34.2408 26.7008 37.528 26.7073 37.5345C26.7106 37.5378 27.038 37.5574 27.4342 37.5771C28.6325 37.636 30.119 37.7637 31.2485 37.9045C31.5072 37.9372 31.7331 37.9536 31.7462 37.9405L26.8612 24.0714V24.0747L26.4094 22.7978C25.9674 21.5504 25.6727 20.7155 23.8949 15.693C23.4169 14.3408 23.0109 13.1981 22.9945 13.1458L22.9618 13.0541H20.5095L18.0572 13.0574Z" fill="#E62E2E"/>
</svg>
