<svg width="28" height="28" viewBox="0 0 28 28" fill="none" xmlns="http://www.w3.org/2000/svg">
<path fill-rule="evenodd" clip-rule="evenodd" d="M7.46654 14.553H17.8919L13.3372 19.1076C12.9732 19.4716 12.9732 20.069 13.3372 20.433C13.7012 20.797 14.2892 20.797 14.6532 20.433L20.8039 14.2823C21.1679 13.9183 21.1679 13.3303 20.8039 12.9663L14.6625 6.80631C14.4882 6.63154 14.2514 6.53333 14.0045 6.53333C13.7577 6.53333 13.5209 6.63154 13.3465 6.80631C12.9825 7.17031 12.9825 7.75831 13.3465 8.12231L17.8919 12.6863H7.46654C6.9532 12.6863 6.5332 13.1063 6.5332 13.6196C6.5332 14.133 6.9532 14.553 7.46654 14.553Z" fill="#C3CAD9"/>
</svg>
