<svg width="28" height="28" viewBox="0 0 28 28" fill="none" xmlns="http://www.w3.org/2000/svg">
<path fill-rule="evenodd" clip-rule="evenodd" d="M19.5999 11.2H18.6665V9.33335C18.6665 6.75735 16.5759 4.66669 13.9999 4.66669C11.4239 4.66669 9.3332 6.75735 9.3332 9.33335V11.2H8.39987C7.3732 11.2 6.5332 12.04 6.5332 13.0667V22.4C6.5332 23.4267 7.3732 24.2667 8.39987 24.2667H19.5999C20.6265 24.2667 21.4665 23.4267 21.4665 22.4V13.0667C21.4665 12.04 20.6265 11.2 19.5999 11.2ZM13.9999 19.6C12.9732 19.6 12.1332 18.76 12.1332 17.7334C12.1332 16.7067 12.9732 15.8667 13.9999 15.8667C15.0265 15.8667 15.8665 16.7067 15.8665 17.7334C15.8665 18.76 15.0265 19.6 13.9999 19.6ZM11.1999 11.2V9.33335C11.1999 7.78402 12.4505 6.53335 13.9999 6.53335C15.5492 6.53335 16.7999 7.78402 16.7999 9.33335V11.2H11.1999Z" fill="#C3CAD9"/>
</svg>
