<svg width="65" height="40" viewBox="0 0 65 40" fill="none" xmlns="http://www.w3.org/2000/svg">
<g clip-path="url(#clip0_3307_9612)">
<rect width="65" height="40" rx="3" fill="url(#paint0_linear_3307_9612)"/>
<path d="M11.1162 9.81738H11.3213V10.9404H11.2383C10.8672 10.9404 10.5368 10.9958 10.2471 11.1064C9.95736 11.2171 9.71159 11.375 9.50977 11.5801C9.3112 11.7819 9.1582 12.026 9.05078 12.3125C8.94661 12.599 8.89453 12.9196 8.89453 13.2744V14.4561C8.89453 14.71 8.91895 14.9346 8.96777 15.1299C9.01986 15.3219 9.0931 15.4831 9.1875 15.6133C9.28516 15.7402 9.39909 15.8363 9.5293 15.9014C9.65951 15.9632 9.80599 15.9941 9.96875 15.9941C10.1217 15.9941 10.2601 15.9616 10.3838 15.8965C10.5107 15.8314 10.6182 15.7402 10.7061 15.623C10.7972 15.5026 10.8656 15.3626 10.9111 15.2031C10.96 15.0404 10.9844 14.863 10.9844 14.6709C10.9844 14.4788 10.96 14.3014 10.9111 14.1387C10.8656 13.9759 10.7972 13.8359 10.7061 13.7188C10.6149 13.5983 10.5042 13.5055 10.374 13.4404C10.2438 13.3753 10.0973 13.3428 9.93457 13.3428C9.71322 13.3428 9.5179 13.3949 9.34863 13.499C9.18262 13.5999 9.05241 13.7301 8.95801 13.8896C8.86361 14.0492 8.81315 14.2168 8.80664 14.3926L8.38184 14.1191C8.3916 13.8685 8.44368 13.6309 8.53809 13.4062C8.63574 13.1816 8.76921 12.9831 8.93848 12.8105C9.111 12.6348 9.31771 12.498 9.55859 12.4004C9.79948 12.2995 10.0713 12.249 10.374 12.249C10.7061 12.249 10.9974 12.3125 11.248 12.4395C11.502 12.5664 11.7135 12.7406 11.8828 12.9619C12.0521 13.1833 12.179 13.4388 12.2637 13.7285C12.3483 14.0182 12.3906 14.3275 12.3906 14.6562C12.3906 15.0013 12.3337 15.3219 12.2197 15.6182C12.109 15.9144 11.9479 16.1732 11.7363 16.3945C11.528 16.6159 11.2773 16.7884 10.9844 16.9121C10.6914 17.0358 10.3626 17.0977 9.99805 17.0977C9.62044 17.0977 9.27702 17.0293 8.96777 16.8926C8.66178 16.7526 8.39811 16.5573 8.17676 16.3066C7.9554 16.056 7.78451 15.7581 7.66406 15.4131C7.54688 15.068 7.48828 14.6904 7.48828 14.2803V13.7334C7.48828 13.1605 7.57129 12.6364 7.7373 12.1611C7.90658 11.6826 8.14909 11.2692 8.46484 10.9209C8.7806 10.5693 9.16146 10.2975 9.60742 10.1055C10.0534 9.91341 10.5563 9.81738 11.1162 9.81738ZM18.0596 9.89062V10.6475L15.3105 17H13.8262L16.5752 10.9893H13.0352V9.89062H18.0596ZM20.2959 13.7627L19.1729 13.4941L19.5781 9.89062H23.5723V11.0283H20.7354L20.5596 12.6055C20.654 12.5501 20.7972 12.4915 20.9893 12.4297C21.1813 12.3646 21.3962 12.332 21.6338 12.332C21.9788 12.332 22.2848 12.3857 22.5518 12.4932C22.8187 12.6006 23.0449 12.7568 23.2305 12.9619C23.4193 13.167 23.5625 13.4176 23.6602 13.7139C23.7578 14.0101 23.8066 14.3454 23.8066 14.7197C23.8066 15.0355 23.7578 15.3366 23.6602 15.623C23.5625 15.9062 23.4144 16.1602 23.2158 16.3848C23.0173 16.6061 22.7682 16.7803 22.4688 16.9072C22.1693 17.0342 21.8145 17.0977 21.4043 17.0977C21.0983 17.0977 20.8021 17.0521 20.5156 16.9609C20.2324 16.8698 19.9769 16.7347 19.749 16.5557C19.5244 16.3766 19.3438 16.1602 19.207 15.9062C19.0736 15.6491 19.0036 15.3561 18.9971 15.0273H20.3936C20.4131 15.2292 20.4652 15.4033 20.5498 15.5498C20.6377 15.693 20.7533 15.8037 20.8965 15.8818C21.0397 15.96 21.2074 15.999 21.3994 15.999C21.5785 15.999 21.7314 15.9648 21.8584 15.8965C21.9854 15.8281 22.0879 15.7337 22.166 15.6133C22.2441 15.4896 22.3011 15.3464 22.3369 15.1836C22.376 15.0176 22.3955 14.8385 22.3955 14.6465C22.3955 14.4544 22.3727 14.2803 22.3271 14.124C22.2816 13.9678 22.2116 13.8327 22.1172 13.7188C22.0228 13.6048 21.9023 13.5169 21.7559 13.4551C21.6126 13.3932 21.445 13.3623 21.2529 13.3623C20.9925 13.3623 20.7907 13.403 20.6475 13.4844C20.5075 13.5658 20.3903 13.6585 20.2959 13.7627ZM26.1553 12.835H26.9072C27.1481 12.835 27.3467 12.7943 27.5029 12.7129C27.6592 12.6283 27.7747 12.5111 27.8496 12.3613C27.9277 12.2083 27.9668 12.0309 27.9668 11.8291C27.9668 11.6468 27.931 11.4857 27.8594 11.3457C27.791 11.2025 27.6852 11.0918 27.542 11.0137C27.3988 10.9323 27.2181 10.8916 27 10.8916C26.8275 10.8916 26.668 10.9258 26.5215 10.9941C26.375 11.0625 26.2578 11.1585 26.1699 11.2822C26.082 11.4059 26.0381 11.5557 26.0381 11.7314H24.627C24.627 11.3408 24.7311 11.0007 24.9395 10.7109C25.151 10.4212 25.4342 10.195 25.7891 10.0322C26.1439 9.86947 26.5345 9.78809 26.9609 9.78809C27.4427 9.78809 27.8643 9.86621 28.2256 10.0225C28.5869 10.1755 28.8685 10.4017 29.0703 10.7012C29.2721 11.0007 29.373 11.3717 29.373 11.8145C29.373 12.0391 29.321 12.2572 29.2168 12.4688C29.1126 12.6771 28.9629 12.8659 28.7676 13.0352C28.5755 13.2012 28.3411 13.3346 28.0645 13.4355C27.7878 13.5332 27.4769 13.582 27.1318 13.582H26.1553V12.835ZM26.1553 13.9043V13.1768H27.1318C27.5192 13.1768 27.8594 13.2207 28.1523 13.3086C28.4453 13.3965 28.6911 13.5234 28.8896 13.6895C29.0882 13.8522 29.238 14.0459 29.3389 14.2705C29.4398 14.4919 29.4902 14.7376 29.4902 15.0078C29.4902 15.3398 29.4268 15.6361 29.2998 15.8965C29.1729 16.1536 28.9938 16.3717 28.7627 16.5508C28.5348 16.7298 28.2679 16.8665 27.9619 16.9609C27.6559 17.0521 27.3223 17.0977 26.9609 17.0977C26.6615 17.0977 26.3669 17.057 26.0771 16.9756C25.7907 16.891 25.5303 16.7656 25.2959 16.5996C25.0648 16.4303 24.8792 16.2188 24.7393 15.9648C24.6025 15.7077 24.5342 15.4033 24.5342 15.0518H25.9453C25.9453 15.234 25.9909 15.3968 26.082 15.54C26.1732 15.6833 26.2985 15.7956 26.458 15.877C26.6208 15.9583 26.8014 15.999 27 15.999C27.2246 15.999 27.4167 15.9583 27.5762 15.877C27.7389 15.7923 27.8626 15.6751 27.9473 15.5254C28.0352 15.3724 28.0791 15.195 28.0791 14.9932C28.0791 14.7327 28.0319 14.5244 27.9375 14.3682C27.8431 14.2087 27.708 14.0915 27.5322 14.0166C27.3564 13.9417 27.1481 13.9043 26.9072 13.9043H26.1553Z" fill="white"/>
<path d="M50.6531 32.7454H44.4155V21.5356H50.6532L50.6531 32.7454Z" fill="#FF5F00"/>
<path d="M44.811 27.1407C44.811 24.8668 45.8757 22.8412 47.5336 21.5358C46.2786 20.5463 44.7264 20.0092 43.1282 20.0115C39.1913 20.0115 36 23.2033 36 27.1407C36 31.0781 39.1913 34.2699 43.1282 34.2699C44.7265 34.2723 46.2787 33.7352 47.5337 32.7456C45.8759 31.4404 44.811 29.4147 44.811 27.1407Z" fill="#EB001B"/>
<path d="M59.0683 27.1407C59.0683 31.0781 55.8769 34.2699 51.94 34.2699C50.3416 34.2722 48.7892 33.7352 47.534 32.7456C49.1924 31.4402 50.2571 29.4147 50.2571 27.1407C50.2571 24.8667 49.1924 22.8412 47.534 21.5358C48.7892 20.5463 50.3416 20.0092 51.9399 20.0115C55.8768 20.0115 59.0682 23.2033 59.0682 27.1407" fill="#F79E1B"/>
</g>
<defs>
<linearGradient id="paint0_linear_3307_9612" x1="10.6351" y1="-9.76644" x2="-2.04046" y2="58.601" gradientUnits="userSpaceOnUse">
<stop stop-color="#FFA346"/>
<stop offset="1" stop-color="#F2E32E"/>
</linearGradient>
<clipPath id="clip0_3307_9612">
<rect width="65" height="40" fill="white"/>
</clipPath>
</defs>
</svg>
