<svg width="65" height="40" viewBox="0 0 65 40" fill="none" xmlns="http://www.w3.org/2000/svg">
<g clip-path="url(#clip0_3307_9603)">
<rect width="65" height="40" rx="3" fill="url(#paint0_linear_3307_9603)"/>
<path d="M11.6582 14.3242H12.4639V15.4619H11.6582V17H10.2471V15.4619H7.33203L7.26855 14.5732L10.2324 9.89062H11.6582V14.3242ZM8.6748 14.3242H10.2471V11.8145L10.1543 11.9756L8.6748 14.3242ZM17.4004 14.3242H18.2061V15.4619H17.4004V17H15.9893V15.4619H13.0742L13.0107 14.5732L15.9746 9.89062H17.4004V14.3242ZM14.417 14.3242H15.9893V11.8145L15.8965 11.9756L14.417 14.3242ZM19.1777 13.5039L19.5879 9.89062H23.5723V11.0674H20.7451L20.5693 12.5957C20.9046 12.4167 21.2611 12.3271 21.6387 12.3271C22.3158 12.3271 22.8464 12.5371 23.2305 12.957C23.6146 13.377 23.8066 13.9645 23.8066 14.7197C23.8066 15.1787 23.709 15.5905 23.5137 15.9551C23.3216 16.3164 23.0449 16.598 22.6836 16.7998C22.3223 16.9984 21.8958 17.0977 21.4043 17.0977C20.9746 17.0977 20.5758 17.0114 20.208 16.8389C19.8402 16.6631 19.5488 16.4173 19.334 16.1016C19.1224 15.7858 19.0101 15.4261 18.9971 15.0225H20.3936C20.4229 15.3187 20.5254 15.5498 20.7012 15.7158C20.8802 15.8786 21.113 15.96 21.3994 15.96C21.7184 15.96 21.9642 15.846 22.1367 15.6182C22.3092 15.387 22.3955 15.0615 22.3955 14.6416C22.3955 14.238 22.2962 13.9287 22.0977 13.7139C21.8991 13.499 21.6175 13.3916 21.2529 13.3916C20.9176 13.3916 20.6458 13.4795 20.4375 13.6553L20.3008 13.7822L19.1777 13.5039ZM28.5381 9.81738V10.9795H28.4014C27.7633 10.9893 27.249 11.1553 26.8584 11.4775C26.471 11.7998 26.2383 12.2474 26.1602 12.8203C26.5378 12.4362 27.0146 12.2441 27.5908 12.2441C28.2093 12.2441 28.7008 12.4655 29.0654 12.9082C29.43 13.3509 29.6123 13.9336 29.6123 14.6562C29.6123 15.1185 29.5114 15.5368 29.3096 15.9111C29.111 16.2855 28.8278 16.5768 28.46 16.7852C28.0954 16.9935 27.682 17.0977 27.2197 17.0977C26.471 17.0977 25.8656 16.8372 25.4033 16.3164C24.9443 15.7956 24.7148 15.1006 24.7148 14.2314V13.7236C24.7148 12.9521 24.8597 12.2718 25.1494 11.6826C25.4424 11.0902 25.8607 10.6328 26.4043 10.3105C26.9512 9.98503 27.5843 9.82064 28.3037 9.81738H28.5381ZM27.1611 13.377C26.9333 13.377 26.7266 13.4372 26.541 13.5576C26.3555 13.6748 26.2188 13.8311 26.1309 14.0264V14.4561C26.1309 14.9281 26.2236 15.2975 26.4092 15.5645C26.5947 15.8281 26.8551 15.96 27.1904 15.96C27.4932 15.96 27.7373 15.8411 27.9229 15.6035C28.1117 15.3626 28.2061 15.0518 28.2061 14.6709C28.2061 14.2835 28.1117 13.971 27.9229 13.7334C27.734 13.4958 27.4801 13.377 27.1611 13.377Z" fill="white"/>
<path d="M50.6531 28.7454H44.4155V17.5356H50.6532L50.6531 28.7454Z" fill="#FF5F00"/>
<path d="M44.811 23.1407C44.811 20.8668 45.8757 18.8412 47.5336 17.5358C46.2786 16.5463 44.7264 16.0092 43.1282 16.0115C39.1913 16.0115 36 19.2033 36 23.1407C36 27.0781 39.1913 30.2699 43.1282 30.2699C44.7265 30.2723 46.2787 29.7352 47.5337 28.7456C45.8759 27.4404 44.811 25.4147 44.811 23.1407Z" fill="#EB001B"/>
<path d="M59.0683 23.1407C59.0683 27.0781 55.8769 30.2699 51.94 30.2699C50.3416 30.2722 48.7892 29.7352 47.534 28.7456C49.1924 27.4402 50.2571 25.4147 50.2571 23.1407C50.2571 20.8667 49.1924 18.8412 47.534 17.5358C48.7892 16.5463 50.3416 16.0092 51.9399 16.0115C55.8768 16.0115 59.0682 19.2033 59.0682 23.1407" fill="#F79E1B"/>
</g>
<defs>
<linearGradient id="paint0_linear_3307_9603" x1="10.6351" y1="-9.76644" x2="-2.04046" y2="58.601" gradientUnits="userSpaceOnUse">
<stop stop-color="#6246FF"/>
<stop offset="1" stop-color="#FFB9B9"/>
</linearGradient>
<clipPath id="clip0_3307_9603">
<rect width="65" height="40" fill="white"/>
</clipPath>
</defs>
</svg>
