<svg width="28" height="28" viewBox="0 0 28 28" fill="none" xmlns="http://www.w3.org/2000/svg">
<path fill-rule="evenodd" clip-rule="evenodd" d="M20.5334 6.53335H16.6321C16.2401 5.45069 15.2134 4.66669 14.0001 4.66669C12.7868 4.66669 11.7601 5.45069 11.3681 6.53335H7.46676C6.4401 6.53335 5.6001 7.37335 5.6001 8.40002V21.4667C5.6001 22.4934 6.4401 23.3334 7.46676 23.3334H20.5334C21.5601 23.3334 22.4001 22.4934 22.4001 21.4667V8.40002C22.4001 7.37335 21.5601 6.53335 20.5334 6.53335ZM14.0001 6.53335C14.5134 6.53335 14.9334 6.95335 14.9334 7.46669C14.9334 7.98002 14.5134 8.40002 14.0001 8.40002C13.4868 8.40002 13.0668 7.98002 13.0668 7.46669C13.0668 6.95335 13.4868 6.53335 14.0001 6.53335ZM14.9334 19.6H10.2668C9.75343 19.6 9.33343 19.18 9.33343 18.6667C9.33343 18.1534 9.75343 17.7334 10.2668 17.7334H14.9334C15.4468 17.7334 15.8668 18.1534 15.8668 18.6667C15.8668 19.18 15.4468 19.6 14.9334 19.6ZM17.7334 15.8667H10.2668C9.75343 15.8667 9.33343 15.4467 9.33343 14.9334C9.33343 14.42 9.75343 14 10.2668 14H17.7334C18.2468 14 18.6668 14.42 18.6668 14.9334C18.6668 15.4467 18.2468 15.8667 17.7334 15.8667ZM17.7334 12.1334H10.2668C9.75343 12.1334 9.33343 11.7134 9.33343 11.2C9.33343 10.6867 9.75343 10.2667 10.2668 10.2667H17.7334C18.2468 10.2667 18.6668 10.6867 18.6668 11.2C18.6668 11.7134 18.2468 12.1334 17.7334 12.1334Z" fill="#C3CAD9"/>
</svg>
