<svg width="28" height="28" viewBox="0 0 28 28" fill="none" xmlns="http://www.w3.org/2000/svg">
<path fill-rule="evenodd" clip-rule="evenodd" d="M20.5333 5.60001H7.46664C6.43998 5.60001 5.59998 6.44001 5.59998 7.46667V20.5333C5.59998 21.56 6.43998 22.4 7.46664 22.4H20.5333C21.56 22.4 22.4 21.56 22.4 20.5333V7.46667C22.4 6.44001 21.56 5.60001 20.5333 5.60001ZM10.2666 18.6667C9.75331 18.6667 9.33331 18.2467 9.33331 17.7333V13.0667C9.33331 12.5533 9.75331 12.1333 10.2666 12.1333C10.78 12.1333 11.2 12.5533 11.2 13.0667V17.7333C11.2 18.2467 10.78 18.6667 10.2666 18.6667ZM14 18.6667C13.4866 18.6667 13.0666 18.2467 13.0666 17.7333V10.2667C13.0666 9.75334 13.4866 9.33334 14 9.33334C14.5133 9.33334 14.9333 9.75334 14.9333 10.2667V17.7333C14.9333 18.2467 14.5133 18.6667 14 18.6667ZM17.7333 18.6667C17.22 18.6667 16.8 18.2467 16.8 17.7333V15.8667C16.8 15.3533 17.22 14.9333 17.7333 14.9333C18.2466 14.9333 18.6666 15.3533 18.6666 15.8667V17.7333C18.6666 18.2467 18.2466 18.6667 17.7333 18.6667Z" fill="#8833FF"/>
</svg>
