<svg width="60" height="38" viewBox="0 0 60 38" fill="none" xmlns="http://www.w3.org/2000/svg">
<path d="M38.0981 33.1379H21.8804V3.99249H38.0984L38.0981 33.1379Z" fill="#FF5F00"/>
<path d="M22.9085 18.5658C22.9085 12.6537 25.6768 7.38711 29.9874 3.99311C26.7245 1.42023 22.6887 0.0238487 18.5334 0.0299884C8.29745 0.0299884 0 8.32864 0 18.5658C0 28.803 8.29745 37.1017 18.5334 37.1017C22.6888 37.1079 26.7247 35.7115 29.9877 33.1385C25.6774 29.7451 22.9085 24.4783 22.9085 18.5658Z" fill="#EB001B"/>
<path d="M59.9775 18.5658C59.9775 28.803 51.6801 37.1017 41.4441 37.1017C37.2883 37.1077 33.2519 35.7114 29.9883 33.1385C34.3002 29.7445 37.0684 24.4783 37.0684 18.5658C37.0684 12.6534 34.3002 7.38711 29.9883 3.99311C33.2519 1.42031 37.2881 0.0239563 41.4438 0.0299877C51.6798 0.0299877 59.9772 8.32864 59.9772 18.5658" fill="#F79E1B"/>
</svg>
