<svg width="28" height="28" viewBox="0 0 28 28" fill="none" xmlns="http://www.w3.org/2000/svg">
<path fill-rule="evenodd" clip-rule="evenodd" d="M20.6819 14.9147C20.7192 14.616 20.7472 14.3174 20.7472 14C20.7472 13.6827 20.7192 13.384 20.6819 13.0854L22.6512 11.5454C22.8285 11.4054 22.8752 11.1534 22.7632 10.948L20.8965 7.71869C20.7845 7.51335 20.5325 7.43869 20.3272 7.51335L18.0032 8.44669C17.5179 8.07335 16.9952 7.76535 16.4259 7.53202L16.0712 5.05869C16.0432 4.83469 15.8472 4.66669 15.6139 4.66669H11.8805C11.6472 4.66669 11.4512 4.83469 11.4232 5.05869L11.0685 7.53202C10.4992 7.76535 9.97655 8.08269 9.49121 8.44669L7.16721 7.51335C6.95255 7.42935 6.70988 7.51335 6.59788 7.71869L4.73121 10.948C4.60988 11.1534 4.66588 11.4054 4.84321 11.5454L6.81255 13.0854C6.77521 13.384 6.74721 13.692 6.74721 14C6.74721 14.308 6.77521 14.616 6.81255 14.9147L4.84321 16.4547C4.66588 16.5947 4.61921 16.8467 4.73121 17.052L6.59788 20.2814C6.70988 20.4867 6.96188 20.5614 7.16721 20.4867L9.49121 19.5534C9.97655 19.9267 10.4992 20.2347 11.0685 20.468L11.4232 22.9414C11.4512 23.1654 11.6472 23.3334 11.8805 23.3334H15.6139C15.8472 23.3334 16.0432 23.1654 16.0712 22.9414L16.4259 20.468C16.9952 20.2347 17.5179 19.9174 18.0032 19.5534L20.3272 20.4867C20.5419 20.5707 20.7845 20.4867 20.8965 20.2814L22.7632 17.052C22.8752 16.8467 22.8285 16.5947 22.6512 16.4547L20.6819 14.9147ZM13.7472 17.2667C11.9459 17.2667 10.4805 15.8014 10.4805 14C10.4805 12.1987 11.9459 10.7334 13.7472 10.7334C15.5485 10.7334 17.0139 12.1987 17.0139 14C17.0139 15.8014 15.5485 17.2667 13.7472 17.2667Z" fill="#C3CAD9"/>
</svg>
